<svg width="35" height="38" viewBox="0 0 35 38" fill="none" xmlns="http://www.w3.org/2000/svg">
<path d="M25.13 22.5444C25.27 21.3234 25.375 20.1024 25.375 18.8444C25.375 17.5864 25.27 16.3654 25.13 15.1444H31.045C31.325 16.3284 31.5 17.5679 31.5 18.8444C31.5 20.1209 31.325 21.3604 31.045 22.5444M22.0325 32.8304C23.0825 30.7769 23.8875 28.5569 24.4475 26.2444H29.61C27.9145 29.3307 25.2247 31.6686 22.0325 32.8304ZM21.595 22.5444H13.405C13.23 21.3234 13.125 20.1024 13.125 18.8444C13.125 17.5864 13.23 16.3469 13.405 15.1444H21.595C21.7525 16.3469 21.875 17.5864 21.875 18.8444C21.875 20.1024 21.7525 21.3234 21.595 22.5444ZM17.5 33.5704C16.0475 31.3504 14.875 28.8899 14.1575 26.2444H20.8425C20.125 28.8899 18.9525 31.3504 17.5 33.5704ZM10.5 11.4444H5.39C7.068 8.34971 9.75589 6.00811 12.95 4.85836C11.9 6.91186 11.1125 9.13186 10.5 11.4444ZM5.39 26.2444H10.5C11.1125 28.5569 11.9 30.7769 12.95 32.8304C9.76259 31.6679 7.07848 29.3296 5.39 26.2444ZM3.955 22.5444C3.675 21.3604 3.5 20.1209 3.5 18.8444C3.5 17.5679 3.675 16.3284 3.955 15.1444H9.87C9.73 16.3654 9.625 17.5864 9.625 18.8444C9.625 20.1024 9.73 21.3234 9.87 22.5444M17.5 4.09986C18.9525 6.31986 20.125 8.79886 20.8425 11.4444H14.1575C14.875 8.79886 16.0475 6.31986 17.5 4.09986ZM29.61 11.4444H24.4475C23.8998 9.15306 23.0888 6.94127 22.0325 4.85836C25.2525 6.02386 27.93 8.37336 29.61 11.4444ZM17.5 0.34436C7.8225 0.34436 0 8.66936 0 18.8444C0 23.7509 1.84374 28.4564 5.12563 31.9258C6.75066 33.6437 8.67984 35.0064 10.803 35.9361C12.9262 36.8658 15.2019 37.3444 17.5 37.3444C22.1413 37.3444 26.5925 35.3953 29.8744 31.9258C33.1563 28.4564 35 23.7509 35 18.8444C35 16.4149 34.5473 14.0092 33.6679 11.7647C32.7884 9.52019 31.4994 7.48077 29.8744 5.76289C28.2493 4.045 26.3202 2.6823 24.197 1.75259C22.0738 0.822877 19.7981 0.34436 17.5 0.34436Z" fill="#D9D9D9" fill-opacity="0.65"/>
</svg>
