<svg width="30" height="38" viewBox="0 0 30 38" fill="none" xmlns="http://www.w3.org/2000/svg">
<path d="M16.2575 29.8566C16.4253 30.06 16.5584 30.3016 16.6493 30.5677C16.7401 30.8338 16.7869 31.119 16.7869 31.4071C16.7869 31.6952 16.7401 31.9805 16.6493 32.2466C16.5584 32.5127 16.4253 32.7543 16.2575 32.9577L15.3666 34.0412C13.6785 36.0945 11.3889 37.248 9.00157 37.248C6.61421 37.248 4.32462 36.0945 2.6365 34.0412C0.948377 31.988 0 29.2032 0 26.2995C0 23.3957 0.948377 20.6109 2.6365 18.5577L6.25397 14.1596C7.87596 12.1819 10.0583 11.0334 12.3539 10.9493C14.6496 10.8652 16.8848 11.8518 18.6017 13.7072C18.7789 13.8988 18.9234 14.1311 19.0269 14.3906C19.1304 14.6502 19.1908 14.932 19.2047 15.22C19.2186 15.5079 19.1858 15.7964 19.1081 16.0689C19.0303 16.3415 18.9092 16.5927 18.7516 16.8083C18.5941 17.0239 18.4032 17.1996 18.1897 17.3255C17.9763 17.4513 17.7447 17.5248 17.5079 17.5418C17.2711 17.5587 17.034 17.5188 16.8099 17.4242C16.5858 17.3297 16.3793 17.1824 16.202 16.9907C15.1724 15.8786 13.8324 15.2869 12.456 15.3367C11.0797 15.3866 9.77095 16.0742 8.7976 17.2589L5.18313 21.6515C4.17041 22.8832 3.60148 24.5538 3.60148 26.2958C3.60148 28.0378 4.17041 29.7084 5.18313 30.9401C6.19584 32.1719 7.56938 32.8639 9.00157 32.8639C10.4338 32.8639 11.8073 32.1719 12.82 30.9401L13.7109 29.8566C13.878 29.6531 14.0765 29.4916 14.295 29.3814C14.5135 29.2713 14.7477 29.2146 14.9842 29.2146C15.2207 29.2146 15.4549 29.2713 15.6734 29.3814C15.8919 29.4916 16.0904 29.6531 16.2575 29.8566ZM27.3679 3.95337C25.6784 1.90328 23.3893 0.751953 21.0028 0.751953C18.6163 0.751953 16.3272 1.90328 14.6377 3.95337L13.7469 5.03692C13.4088 5.44815 13.2188 6.0059 13.2188 6.58747C13.2188 7.16904 13.4088 7.72678 13.7469 8.13801C14.085 8.54924 14.5435 8.78027 15.0217 8.78027C15.4998 8.78027 15.9584 8.54924 16.2965 8.13801L17.1874 7.05446C18.2001 5.8227 19.5736 5.13071 21.0058 5.13071C22.438 5.13071 23.8116 5.8227 24.8243 7.05446C25.837 8.28621 26.4059 9.95683 26.4059 11.6988C26.4059 13.4408 25.837 15.1114 24.8243 16.3431L21.2083 20.743C20.2341 21.9272 18.9247 22.6138 17.5479 22.6623C16.1712 22.7108 14.8313 22.1175 13.8024 21.0039C13.6251 20.8122 13.4186 20.6649 13.1945 20.5704C12.9704 20.4758 12.7332 20.4359 12.4965 20.4528C12.2597 20.4698 12.028 20.5433 11.8146 20.6691C11.6012 20.795 11.4103 20.9707 11.2527 21.1863C11.0952 21.4019 10.9741 21.6531 10.8963 21.9257C10.8186 22.1982 10.7858 22.4867 10.7997 22.7746C10.8136 23.0626 10.874 23.3444 10.9775 23.604C11.081 23.8635 11.2255 24.0958 11.4027 24.2874C13.1184 26.1423 15.3521 27.1296 17.6467 27.0472C19.9413 26.9648 22.1232 25.819 23.7459 23.8441L27.3634 19.446C29.0509 17.3916 29.9992 14.6067 30 11.7027C30.0008 8.79864 29.0542 6.01289 27.3679 3.95701V3.95337Z" fill="white"/>
</svg>
