<svg xmlns="http://www.w3.org/2000/svg" version="1.1" xmlns:xlink="http://www.w3.org/1999/xlink" xmlns:svgjs="http://svgjs.dev/svgjs" viewBox="0 0 800 800"><defs><linearGradient x1="50%" y1="0%" x2="50%" y2="100%" id="cccoil-grad"><stop stop-color="hsl(158, 55%, 47%)" stop-opacity="1" offset="0%"></stop><stop stop-color="hsl(289, 82%, 53%))" stop-opacity="1" offset="100%"></stop></linearGradient></defs><g stroke="url(#cccoil-grad)" fill="none" stroke-linecap="square"><circle r="459" cx="400" cy="400" stroke-width="5.5" stroke-dasharray="2192 2884" transform="rotate(360, 400, 400)"></circle><circle r="442" cx="400" cy="400" stroke-width="5.5" stroke-dasharray="2029 2777" transform="rotate(346, 400, 400)"></circle><circle r="425" cx="400" cy="400" stroke-width="5.5" stroke-dasharray="1873 2670" transform="rotate(332, 400, 400)"></circle><circle r="408" cx="400" cy="400" stroke-width="5.5" stroke-dasharray="1723 2564" transform="rotate(318, 400, 400)"></circle><circle r="391" cx="400" cy="400" stroke-width="5.5" stroke-dasharray="1580 2457" transform="rotate(305, 400, 400)"></circle><circle r="374" cx="400" cy="400" stroke-width="5.5" stroke-dasharray="1442 2350" transform="rotate(291, 400, 400)"></circle><circle r="357" cx="400" cy="400" stroke-width="5.5" stroke-dasharray="1311 2243" transform="rotate(277, 400, 400)"></circle><circle r="340" cx="400" cy="400" stroke-width="5.5" stroke-dasharray="1186 2136" transform="rotate(263, 400, 400)"></circle><circle r="323" cx="400" cy="400" stroke-width="5.5" stroke-dasharray="1068 2029" transform="rotate(249, 400, 400)"></circle><circle r="306" cx="400" cy="400" stroke-width="5.5" stroke-dasharray="955 1923" transform="rotate(235, 400, 400)"></circle><circle r="289" cx="400" cy="400" stroke-width="5.5" stroke-dasharray="849 1816" transform="rotate(222, 400, 400)"></circle><circle r="272" cx="400" cy="400" stroke-width="5.5" stroke-dasharray="749 1709" transform="rotate(208, 400, 400)"></circle><circle r="255" cx="400" cy="400" stroke-width="5.5" stroke-dasharray="656 1602" transform="rotate(194, 400, 400)"></circle><circle r="238" cx="400" cy="400" stroke-width="5.5" stroke-dasharray="568 1495" transform="rotate(180, 400, 400)"></circle><circle r="221" cx="400" cy="400" stroke-width="5.5" stroke-dasharray="487 1389" transform="rotate(166, 400, 400)"></circle><circle r="204" cx="400" cy="400" stroke-width="5.5" stroke-dasharray="412 1282" transform="rotate(152, 400, 400)"></circle><circle r="187" cx="400" cy="400" stroke-width="5.5" stroke-dasharray="343 1175" transform="rotate(138, 400, 400)"></circle><circle r="170" cx="400" cy="400" stroke-width="5.5" stroke-dasharray="281 1068" transform="rotate(125, 400, 400)"></circle><circle r="153" cx="400" cy="400" stroke-width="5.5" stroke-dasharray="225 961" transform="rotate(111, 400, 400)"></circle><circle r="136" cx="400" cy="400" stroke-width="5.5" stroke-dasharray="175 855" transform="rotate(97, 400, 400)"></circle><circle r="119" cx="400" cy="400" stroke-width="5.5" stroke-dasharray="131 748" transform="rotate(83, 400, 400)"></circle><circle r="102" cx="400" cy="400" stroke-width="5.5" stroke-dasharray="94 641" transform="rotate(69, 400, 400)"></circle><circle r="85" cx="400" cy="400" stroke-width="5.5" stroke-dasharray="62 534" transform="rotate(55, 400, 400)"></circle><circle r="68" cx="400" cy="400" stroke-width="5.5" stroke-dasharray="37 427" transform="rotate(42, 400, 400)"></circle><circle r="51" cx="400" cy="400" stroke-width="5.5" stroke-dasharray="19 320" transform="rotate(28, 400, 400)"></circle><circle r="34" cx="400" cy="400" stroke-width="5.5" stroke-dasharray="6 214" transform="rotate(14, 400, 400)"></circle><circle r="17" cx="400" cy="400" stroke-width="5.5" stroke-dasharray="0 107"></circle></g></svg>